<?xml version="1.0" standalone="no"?>
<!DOCTYPE svg PUBLIC "-//W3C//DTD SVG 20010904//EN"
 "http://www.w3.org/TR/2001/REC-SVG-20010904/DTD/svg10.dtd">
<svg version="1.0" xmlns="http://www.w3.org/2000/svg"
 width="1001.000000pt" height="1001.000000pt" viewBox="0 0 1001.000000 1001.000000"
 preserveAspectRatio="xMidYMid meet">
<metadata>
Created by potrace 1.14, written by Peter Selinger 2001-2017
</metadata>
<g transform="translate(0.000000,1001.000000) scale(0.100000,-0.100000)"
fill="#000000" stroke="none">
<path d="M2369 9956 c-2 -2 -41 -7 -86 -10 -46 -4 -93 -9 -105 -12 -13 -2 -40
-6 -60 -9 -20 -2 -76 -14 -125 -26 -48 -11 -98 -21 -110 -22 -13 0 -23 -5 -23
-11 0 -5 -3 -6 -7 -3 -3 4 -12 2 -20 -4 -7 -6 -13 -9 -13 -5 0 3 -12 1 -27 -5
-16 -6 -35 -12 -43 -14 -33 -8 -104 -36 -119 -48 -12 -10 -13 -9 -7 2 5 8 -2
6 -19 -5 -16 -10 -34 -19 -42 -20 -21 -3 -214 -100 -289 -145 -116 -70 -229
-148 -270 -187 -8 -7 -14 -11 -14 -8 0 3 -8 -2 -18 -11 -10 -10 -44 -40 -76
-68 -125 -107 -257 -252 -357 -389 -33 -44 -64 -86 -69 -93 -48 -59 -223 -386
-213 -397 4 -3 1 -6 -5 -6 -7 0 -11 -3 -10 -8 2 -4 -4 -25 -14 -47 -17 -42
-30 -75 -33 -87 -2 -5 -4 -10 -5 -13 -1 -3 -3 -8 -5 -12 -1 -5 -4 -15 -7 -23
-7 -18 -33 -103 -34 -110 0 -3 -6 -25 -13 -50 -7 -25 -15 -54 -17 -65 -6 -31
-12 -58 -18 -85 -8 -37 -15 -78 -22 -138 -3 -29 -8 -63 -12 -75 -4 -12 -8
-1094 -9 -2403 l-4 -2381 23 2 c13 2 52 6 88 10 77 8 110 12 170 20 25 3 59 7
75 9 17 2 50 7 75 11 25 3 59 8 75 10 17 2 30 4 30 5 0 1 14 3 30 6 47 6 90
12 90 14 0 1 11 3 25 5 14 2 52 8 85 15 33 6 74 13 90 16 41 6 70 12 70 15 0
1 14 3 30 4 17 2 30 4 30 5 0 2 12 5 60 14 17 3 68 15 115 25 47 10 88 17 93
14 4 -2 7 1 7 8 0 7 2 10 6 7 3 -3 37 3 77 14 40 11 81 20 92 22 11 1 45 10
75 19 30 9 66 18 80 21 37 7 57 13 140 36 41 12 84 24 94 26 11 2 47 12 80 23
34 10 108 33 166 51 58 17 141 43 185 58 44 14 85 27 90 28 6 1 30 9 54 18 24
9 47 13 52 10 5 -3 9 0 9 5 0 6 8 11 18 11 10 0 23 5 30 12 7 7 12 9 12 6 0
-3 56 14 125 37 69 24 125 39 125 34 0 -5 -3 -9 -7 -9 -5 0 -33 -24 -63 -53
-31 -28 -77 -70 -104 -92 -26 -22 -62 -53 -79 -69 -18 -16 -77 -64 -131 -108
-54 -44 -105 -85 -112 -91 -31 -28 -44 -37 -50 -37 -4 0 -17 -11 -30 -25 -13
-14 -27 -25 -32 -25 -5 0 -21 -11 -36 -25 -15 -14 -31 -25 -36 -25 -5 0 -13
-6 -17 -13 -4 -6 -16 -16 -25 -22 -50 -30 -344 -231 -346 -237 -2 -5 -8 -8
-13 -8 -6 0 -35 -16 -66 -36 -117 -75 -345 -200 -533 -293 -107 -52 -197 -96
-200 -96 -3 0 -15 -6 -26 -13 -12 -6 -24 -8 -28 -5 -3 3 -6 1 -6 -5 0 -7 -8
-12 -18 -12 -10 0 -22 -3 -26 -8 -4 -4 -11 -7 -14 -8 -4 0 -25 -8 -47 -18
-130 -58 -608 -225 -657 -229 -13 -1 -15 -9 -11 -37 2 -19 9 -48 15 -63 6 -15
12 -36 12 -45 1 -9 7 -35 14 -57 6 -22 12 -43 12 -47 1 -4 11 -31 22 -60 11
-29 20 -59 21 -65 0 -7 5 -13 10 -13 5 0 7 -7 3 -15 -3 -8 -1 -15 4 -15 6 0
10 -7 10 -16 0 -17 126 -285 139 -294 4 -3 10 -13 14 -22 8 -22 157 -247 182
-274 5 -6 24 -29 40 -50 90 -114 305 -327 387 -382 21 -13 38 -29 38 -34 0 -5
4 -7 9 -4 5 4 11 2 13 -3 12 -31 468 -298 468 -274 0 5 4 3 8 -3 7 -11 211
-92 249 -99 10 -2 20 -4 23 -6 3 -1 10 -3 15 -4 6 -1 17 -4 25 -8 8 -3 29 -9
45 -13 17 -4 36 -9 43 -11 67 -18 176 -39 262 -49 25 -3 56 -8 70 -12 36 -9
5379 -9 5474 1 44 4 82 9 85 12 4 2 33 6 65 10 33 3 62 8 65 10 3 1 24 6 46
10 45 7 70 13 70 15 0 1 32 10 70 21 39 10 75 21 80 22 6 2 24 7 40 12 17 4
35 10 40 14 6 3 13 6 18 7 4 1 9 3 12 4 3 1 8 3 13 5 80 22 374 169 462 230
25 17 53 34 63 38 9 3 17 11 17 17 0 5 6 10 13 10 11 1 86 58 206 158 60 49
173 164 241 242 30 35 61 69 68 76 6 7 12 17 12 23 0 6 3 11 8 11 4 0 18 17
32 37 14 21 32 46 40 56 65 77 262 447 259 483 0 4 3 10 8 13 7 5 66 164 78
211 3 8 13 51 25 94 11 44 22 90 25 103 2 13 9 49 15 81 5 31 12 66 14 77 2
11 8 54 12 95 11 93 12 5380 1 5470 -4 36 -9 75 -11 85 -2 11 -7 43 -11 70 -5
28 -9 52 -10 55 -1 3 -5 25 -10 50 -5 25 -9 47 -10 50 0 3 -5 16 -9 30 -5 14
-10 32 -11 40 0 8 -6 33 -13 55 -6 22 -11 43 -12 48 0 4 -7 21 -15 37 -9 17
-13 30 -11 30 4 0 -18 58 -62 165 -9 22 -39 85 -67 140 -175 344 -429 648
-730 872 -113 83 -120 88 -188 126 -12 6 -36 21 -52 33 -37 26 -255 135 -255
127 0 -3 -7 0 -15 7 -8 7 -15 9 -15 6 0 -4 -7 0 -16 8 -8 9 -23 16 -33 16 -10
0 -31 6 -47 14 -16 8 -78 29 -139 47 -60 17 -117 34 -125 37 -8 3 -22 6 -30 7
-8 1 -40 7 -70 14 -54 11 -85 16 -165 27 -22 3 -51 8 -65 12 -26 7 -5363 15
-5371 8z m5063 -2957 c36 -16 58 -51 59 -92 1 -19 -18 -72 -47 -132 -26 -55
-47 -100 -46 -100 1 0 -27 -56 -63 -125 -36 -69 -65 -131 -65 -137 0 -7 -4
-13 -8 -13 -5 0 -23 -29 -41 -65 -18 -36 -70 -129 -117 -207 -46 -78 -84 -145
-84 -150 0 -4 -4 -8 -9 -8 -5 0 -14 -13 -21 -30 -7 -16 -16 -30 -21 -30 -5 0
-9 -4 -9 -10 0 -11 -62 -103 -72 -108 -5 -2 -8 -10 -8 -18 0 -8 -3 -14 -7 -14
-5 0 -19 -18 -33 -40 -13 -22 -28 -40 -32 -40 -4 0 -8 -5 -8 -11 0 -14 -167
-231 -269 -349 -89 -102 -152 -171 -262 -280 -138 -137 -204 -197 -324 -295
-21 -16 -46 -38 -58 -47 -11 -10 -23 -18 -26 -18 -3 0 -17 -10 -31 -23 -23
-21 -66 -52 -207 -150 -29 -21 -57 -37 -63 -37 -5 0 -10 -4 -10 -10 0 -5 -7
-10 -15 -10 -8 0 -15 -4 -15 -10 0 -5 -5 -10 -11 -10 -6 0 -24 -10 -41 -21
-16 -12 -48 -31 -71 -44 -46 -24 -116 -63 -132 -73 -5 -4 -12 -7 -15 -8 -9 -1
-85 -39 -90 -45 -3 -3 -26 -14 -52 -25 -38 -15 -48 -24 -52 -49 -13 -70 -18
-102 -21 -130 -1 -16 -8 -57 -14 -90 -6 -33 -13 -80 -16 -105 -3 -25 -7 -56
-10 -70 -2 -14 -7 -45 -10 -70 -4 -25 -11 -47 -16 -48 -5 -2 -7 -7 -5 -11 5
-8 -87 -71 -103 -71 -6 0 -11 -4 -11 -10 0 -5 -7 -10 -15 -10 -8 0 -15 -4 -15
-10 0 -5 -7 -10 -15 -10 -8 0 -15 -4 -15 -10 0 -5 -3 -9 -7 -8 -5 1 -28 -11
-53 -26 -25 -16 -99 -63 -165 -104 -66 -41 -162 -101 -213 -133 -50 -33 -97
-59 -102 -59 -6 0 -13 -7 -16 -15 -4 -8 -11 -15 -16 -15 -5 0 -23 -9 -39 -21
-16 -11 -29 -18 -29 -14 0 3 -7 0 -15 -7 -31 -26 -41 -33 -65 -47 -14 -8 -45
-26 -70 -41 -50 -29 -94 -27 -118 7 -51 72 -252 386 -252 393 0 6 -5 10 -12
10 -6 0 -9 3 -5 6 3 4 -1 13 -9 21 -23 23 -5 88 27 98 10 4 19 10 19 13 0 4
16 16 35 26 19 11 35 23 35 28 0 4 5 8 10 8 9 0 127 76 140 90 3 3 35 25 72
50 83 55 95 80 66 142 -12 23 -27 50 -34 58 -24 29 -204 312 -204 321 0 5 -4
9 -10 9 -5 0 -10 7 -10 15 0 8 -4 15 -8 15 -5 0 -15 12 -23 27 -8 15 -48 79
-90 143 -41 63 -86 133 -99 155 -13 22 -28 42 -32 43 -4 2 -8 10 -8 18 0 8 -4
14 -10 14 -5 0 -10 5 -10 10 0 9 -17 37 -82 132 -19 28 -65 33 -109 12 -21
-11 -39 -22 -39 -26 0 -5 -5 -8 -10 -8 -12 0 -73 -41 -78 -52 -2 -5 -8 -8 -12
-8 -9 0 -124 -70 -147 -90 -7 -5 -24 -15 -38 -22 -14 -6 -25 -15 -25 -19 0 -9
-57 -29 -85 -29 -20 0 -75 47 -75 63 0 4 -8 20 -19 35 -56 80 -121 184 -121
192 0 6 -4 10 -10 10 -5 0 -10 7 -10 15 0 8 -4 15 -10 15 -5 0 -10 5 -10 11 0
5 -18 36 -39 68 -63 92 -57 126 31 182 29 19 55 37 56 41 2 5 7 8 11 8 8 0
375 239 398 259 7 6 15 11 18 11 8 0 69 44 73 53 2 4 7 5 11 2 5 -2 19 7 31
20 13 14 28 25 33 25 5 0 52 29 104 65 52 36 98 65 102 65 4 0 17 9 30 21 24
22 72 27 144 15 69 -11 113 -18 227 -32 25 -3 56 -7 70 -9 104 -19 113 -17
155 21 58 52 84 74 140 119 28 22 52 42 55 45 3 3 23 18 45 35 40 30 55 41 78
60 60 51 398 275 414 275 6 0 13 4 15 8 2 4 30 23 63 41 33 19 74 42 90 51 39
22 213 109 290 145 123 58 433 179 510 199 6 1 30 9 55 16 25 7 50 15 55 16 6
1 49 14 98 27 48 14 87 23 87 20 0 -2 6 -1 13 4 6 4 17 8 22 9 6 1 25 5 44 9
19 3 38 8 43 11 5 3 23 7 41 10 18 2 43 6 57 9 77 17 110 22 115 17 3 -3 5 -1
5 4 0 5 12 10 28 11 15 0 45 4 67 7 22 3 58 8 80 11 22 3 51 7 65 10 14 3 50
7 80 10 30 2 82 7 115 11 77 8 126 11 310 19 82 3 150 7 151 8 8 8 134 -3 156
-14z"/>
<path d="M5765 6323 c-120 -40 -212 -119 -262 -224 -82 -169 -51 -352 81 -485
116 -116 252 -151 431 -111 18 5 110 51 121 61 6 6 26 25 45 42 135 121 170
337 81 511 -22 41 -124 153 -141 153 -5 0 -16 6 -23 13 -46 46 -244 70 -333
40z"/>
</g>
</svg>
